<svg width="214" height="199" viewBox="0 0 214 199" fill="none" xmlns="http://www.w3.org/2000/svg">
<path fill-rule="evenodd" clip-rule="evenodd" d="M34.798 1.93099C19.149 6.93399 6.763 19.315 2.009 34.705C0.0940001 40.905 0 43.946 0 99.5C0 154.82 0.101 158.117 1.985 164.217C6.779 179.736 19.286 192.224 34.855 197.036C40.899 198.904 44.435 199 107 199C169.801 199 173.081 198.91 179.217 197.015C194.736 192.221 207.224 179.714 212.036 164.145C213.893 158.136 214 154.611 214 99.5C214 44.18 213.899 40.883 212.015 34.783C207.221 19.264 194.714 6.77599 179.145 1.96399C173.091 0.0929929 169.647 0.00299302 106.645 0.053993C45.478 0.103993 40.071 0.244993 34.798 1.93099Z" fill="#FFE142"/>
<path fill-rule="evenodd" clip-rule="evenodd" d="M34.798 1.93099C19.149 6.93399 6.763 19.315 2.009 34.705C0.0940001 40.905 0 43.946 0 99.5C0 154.82 0.101 158.117 1.985 164.217C6.779 179.736 19.286 192.224 34.855 197.036C40.899 198.904 44.435 199 107 199C169.801 199 173.081 198.91 179.217 197.015C194.736 192.221 207.224 179.714 212.036 164.145C213.893 158.136 214 154.611 214 99.5C214 44.18 213.899 40.883 212.015 34.783C207.221 19.264 194.714 6.77599 179.145 1.96399C173.091 0.0929929 169.647 0.00299302 106.645 0.053993C45.478 0.103993 40.071 0.244993 34.798 1.93099ZM138.28 46.295C140.683 47.337 143.907 53.578 162.108 92.431C180.374 131.422 183.017 137.668 182.1 139.681C180.934 142.238 176.939 142.861 175.238 140.75C174.684 140.063 169.934 130.306 164.682 119.069L155.134 98.639L138.817 98.891C129.843 99.03 122.219 99.449 121.876 99.822C121.533 100.195 118.907 108.392 116.04 118.039C113.173 127.685 109.992 136.685 108.972 138.039L107.116 140.5L70.559 140.786C47.44 140.966 33.312 140.702 32.126 140.067C29.648 138.742 28.89 135.533 30.524 133.296C31.738 131.636 34.527 131.478 67.419 131.214C86.988 131.056 103 130.792 103 130.628C103 130.463 105.02 123.617 107.488 115.414C109.957 107.211 111.982 100.162 111.988 99.75C111.995 99.338 96.786 99 78.191 99C43.171 99 42.102 98.882 40.708 94.847C40.394 93.938 40.745 92.363 41.487 91.347C42.75 89.619 45.181 89.481 79.169 89.211L115.5 88.921L120.282 72.711C122.913 63.795 125.05 55.938 125.032 55.25C125.007 54.278 118.103 54 93.934 54C75.728 54 62.117 53.598 61.052 53.028C58.598 51.715 57.789 49.263 59.039 46.928C60.03 45.075 61.542 45.002 97.785 45.045C124.911 45.078 136.28 45.429 138.28 46.295ZM130.004 71.75C127.611 79.862 125.458 87.063 125.219 87.75C124.888 88.707 127.743 89 137.393 89C144.327 89 150 88.694 150 88.32C150 86.999 135.631 57 134.997 57C134.644 57 132.397 63.638 130.004 71.75ZM69.75 161.728C66.549 162.063 66 162.478 66 164.56C66 166.689 66.477 167.017 69.75 167.132L73.5 167.263L70 167.882C67.366 168.347 66.421 169.057 66.18 170.75C65.9 172.723 66.301 173 69.43 173C71.394 173 73 173.45 73 174C73 174.55 71.2 175 69 175H65V168V161L69.25 161.168L73.5 161.336L69.75 161.728ZM86.443 163.223C90.029 168.342 87.368 173.579 80.624 174.674L77 175.262V168.131V161H80.943C83.885 161 85.282 161.565 86.443 163.223ZM95.05 173.027C98.737 175 100.857 172.685 101.261 166.241L101.622 160.5L101.811 166.771C101.986 172.576 101.814 173.128 99.5 174.182C97.63 175.034 96.37 175.034 94.5 174.182C92.186 173.128 92.014 172.576 92.189 166.771L92.378 160.5L92.739 166.241C93.017 170.679 93.542 172.22 95.05 173.027ZM114.769 167.694C115.966 171.376 116.715 174.619 116.433 174.9C116.151 175.182 115.661 174.42 115.344 173.206C114.551 170.173 108.448 170.013 107.5 173C107.151 174.1 106.508 175 106.071 175C105.634 175 106.399 171.85 107.771 168C109.144 164.15 110.79 161 111.429 161C112.069 161 113.572 164.012 114.769 167.694ZM129.168 163.47C130.571 166.549 129.14 168.591 124.931 169.515C122.674 170.011 122 170.716 122 172.579C122 173.911 121.55 175 121 175C120.429 175 120 172 120 168V161H124.021C127.328 161 128.243 161.439 129.168 163.47ZM142 163C143.501 165.805 141.736 168.679 138.008 169.498C135.674 170.011 135 170.702 135 172.579C135 173.911 134.55 175 134 175C133.429 175 133 172 133 168V161H136.965C139.906 161 141.206 161.516 142 163ZM79 167.563V173.127L82.173 172.813C84.623 172.571 85.556 171.866 86.267 169.718C87.484 166.041 84.976 162 81.477 162C79.138 162 79 162.31 79 167.563ZM122 164.934C122 167.689 122.311 168 125.066 168C127.822 168 128.101 167.721 127.816 165.25C127.568 163.09 126.91 162.432 124.75 162.184C122.279 161.899 122 162.178 122 164.934ZM135 165C135 167.828 135.268 168.102 137.75 167.816C139.932 167.565 140.5 166.984 140.5 165C140.5 163.016 139.932 162.435 137.75 162.184C135.268 161.898 135 162.172 135 165ZM110.07 165.315C108.518 169.399 108.71 170 111.567 170C113.767 170 114.036 169.678 113.446 167.75C111.955 162.874 111.204 162.333 110.07 165.315Z" fill="#E1C53A"/>
<path fill-rule="evenodd" clip-rule="evenodd" d="M34.798 1.93099C19.149 6.93399 6.763 19.315 2.009 34.705C0.0940001 40.905 0 43.946 0 99.5C0 154.82 0.101 158.117 1.985 164.217C6.779 179.736 19.286 192.224 34.855 197.036C40.899 198.904 44.435 199 107 199C169.801 199 173.081 198.91 179.217 197.015C194.736 192.221 207.224 179.714 212.036 164.145C213.893 158.136 214 154.611 214 99.5C214 44.18 213.899 40.883 212.015 34.783C207.221 19.264 194.714 6.77599 179.145 1.96399C173.091 0.0929929 169.647 0.00299302 106.645 0.053993C45.478 0.103993 40.071 0.244993 34.798 1.93099ZM135.668 45.57C137.961 45.861 140.277 46.638 140.815 47.299C142.582 49.467 183 136.378 183 138.009C183 141.993 177.137 143.462 174.763 140.073C174.021 139.013 169.246 129.225 164.152 118.323L154.891 98.5L138.71 98.822C129.458 99.006 122.266 99.569 121.916 100.136C121.579 100.681 118.897 109.235 115.957 119.144C111.761 133.288 110.087 137.573 108.171 139.08C105.866 140.893 103.71 141 69.365 141C34.333 141 32.927 140.927 31 139C28.494 136.494 28.494 135.506 31 133C32.923 131.077 34.333 131 67.823 131H102.645L106.996 116.25C109.389 108.138 111.542 100.938 111.781 100.25C112.122 99.266 104.957 99 78.107 99C45.333 99 43.922 98.922 42 97C39.621 94.621 39.555 93.991 41.419 91.441C42.765 89.598 44.669 89.475 79.102 89L115.367 88.5L120.17 72.5C122.812 63.7 124.979 55.938 124.987 55.25C124.997 54.276 118.006 54 93.329 54C65.262 54 61.449 53.812 59.829 52.345C57.529 50.264 57.512 48.488 59.768 46.232C61.402 44.598 64.173 44.486 96.518 44.754C115.758 44.913 133.376 45.28 135.668 45.57ZM130.123 71.753C127.715 79.864 125.54 87.063 125.289 87.75C124.94 88.708 127.79 89 137.5 89C144.467 89 150.017 88.603 149.833 88.117C148.288 84.025 135.42 57.001 135.019 57.003C134.733 57.005 132.53 63.642 130.123 71.753ZM70.25 161.723C67.583 162.054 67 162.564 67 164.563C67 166.613 67.516 167.025 70.25 167.16L73.5 167.32L70.25 167.723C67.583 168.054 67 168.564 67 170.563C67 172.681 67.458 173 70.5 173C72.425 173 74 173.45 74 174C74 174.55 71.975 175 69.5 175H65V168V161L69.25 161.16C72.934 161.299 73.067 161.374 70.25 161.723ZM86.171 162.655C88.298 164.58 88.591 169.81 86.715 172.375C86.005 173.347 83.545 174.386 81.215 174.698L77 175.263V168.132V161H80.671C82.69 161 85.165 161.745 86.171 162.655ZM93.2 166.75C93.496 172.421 93.544 172.504 96.716 172.811C100.24 173.151 100.622 172.462 101.315 164.5C101.556 161.733 101.716 162.416 101.832 166.715C101.973 171.938 101.691 173.095 100.066 173.965C94.727 176.822 91 173.456 91 165.777C91 159.012 92.839 159.825 93.2 166.75ZM114.94 167.542C116.21 171.14 116.95 174.383 116.585 174.748C116.22 175.114 115.661 174.42 115.344 173.206C114.551 170.173 108.448 170.013 107.5 173C107.151 174.1 106.47 175 105.986 175C105.24 175 106.946 169.057 109.504 162.75C110.847 159.438 112.635 161.015 114.94 167.542ZM128.8 162.2C131.647 165.047 128.872 170 124.429 170C122.505 170 122 170.52 122 172.5C122 173.875 121.55 175 121 175C120.429 175 120 172 120 168V161H123.8C125.89 161 128.14 161.54 128.8 162.2ZM142.02 163.038C143.74 166.251 142.318 168.85 138.444 169.577C135.66 170.099 135 170.681 135 172.611C135 173.925 134.55 175 134 175C133.429 175 133 172 133 168V161H136.965C139.931 161 141.204 161.513 142.02 163.038ZM79 167.5C79 172.572 79.179 173 81.3 173C84.486 173 86 171.175 86 167.335C86 164.028 83.934 162 80.566 162C79.335 162 79 163.175 79 167.5ZM122 165C122 167.828 122.268 168.102 124.75 167.816C126.932 167.565 127.5 166.984 127.5 165C127.5 163.016 126.932 162.435 124.75 162.184C122.268 161.898 122 162.172 122 165ZM135 165.066C135 167.82 135.28 168.101 137.741 167.816C142.578 167.258 141.689 162.059 136.75 162.015C135.46 162.004 135 162.807 135 165.066ZM110.223 165.411C108.541 169.101 108.682 170 110.941 170C113.615 170 114.005 168.985 112.626 165.614L111.445 162.728L110.223 165.411Z" fill="#C3A932"/>
<path fill-rule="evenodd" clip-rule="evenodd" d="M34.798 1.93099C19.149 6.93399 6.763 19.315 2.009 34.705C0.0940001 40.905 0 43.946 0 99.5C0 154.82 0.101 158.117 1.985 164.217C6.779 179.736 19.286 192.224 34.855 197.036C40.899 198.904 44.435 199 107 199C169.801 199 173.081 198.91 179.217 197.015C194.736 192.221 207.224 179.714 212.036 164.145C213.893 158.136 214 154.611 214 99.5C214 44.18 213.899 40.883 212.015 34.783C207.221 19.264 194.714 6.77599 179.145 1.96399C173.091 0.0929929 169.647 0.00299302 106.645 0.053993C45.478 0.103993 40.071 0.244993 34.798 1.93099ZM138.984 46.376C140.975 47.286 145.575 56.229 162.198 91.506C174.213 117.003 182.839 136.509 182.715 137.899C182.445 140.909 180.034 142.479 176.905 141.682C174.913 141.174 172.805 137.417 164.622 119.784L154.745 98.5L138.435 98.796L122.125 99.092L121.118 102.296C120.564 104.058 118.021 112.475 115.467 121C112.739 130.102 109.961 137.429 108.737 138.75L106.651 141H69.654C36.632 141 32.461 140.822 30.829 139.345C28.56 137.291 28.504 135.206 30.655 132.829C32.198 131.123 34.678 131 67.405 130.997L102.5 130.994L106.877 116.247C109.285 108.136 111.46 100.938 111.711 100.25C112.07 99.265 104.892 99 77.912 99C47.441 99 43.455 98.817 41.829 97.345C39.56 95.291 39.504 93.206 41.655 90.829C43.2 89.122 45.698 89 79.112 89H114.914L118.036 78.75C119.752 73.112 122.028 65.619 123.093 62.098C124.158 58.577 124.778 55.444 124.47 55.137C124.163 54.83 109.869 54.4 92.706 54.183C66.339 53.849 61.229 53.547 59.75 52.239C57.568 50.308 57.523 48.185 59.613 45.875C61.125 44.205 63.605 44.128 98.863 44.666C123.643 45.044 137.348 45.628 138.984 46.376ZM129.813 73.25L125.279 88.5L137.274 88.782C143.872 88.937 149.436 88.898 149.638 88.695C150.161 88.172 135.759 58 134.986 58C134.635 58 132.307 64.862 129.813 73.25ZM70.75 161.728C67.549 162.063 67 162.478 67 164.56C67 166.604 67.486 167 70 167C71.65 167 73 167.45 73 168C73 168.55 71.65 169 70 169C67.667 169 67 169.444 67 171C67 172.619 67.667 173 70.5 173C72.425 173 74 173.45 74 174C74 174.55 71.975 175 69.5 175H65V168V161L69.75 161.168C74.102 161.322 74.186 161.369 70.75 161.728ZM86.171 162.655C88.645 164.894 88.554 170.446 86 173C84.762 174.238 82.667 175 80.5 175H77V168V161H80.671C82.69 161 85.165 161.745 86.171 162.655ZM93 165.8C93 170.856 94.24 173 97.165 173C99.544 173 101 169.987 101 165.066C101 162.83 101.45 161 102 161C103.605 161 103.164 170.321 101.443 172.777C99.582 175.434 95.439 175.707 92.829 173.345C91.492 172.135 91 170.253 91 166.345C91 163.405 91.45 161 92 161C92.55 161 93 163.16 93 165.8ZM113 161.477C113 161.74 114.105 164.89 115.455 168.477C117.297 173.369 117.576 175 116.572 175C115.836 175 114.998 174.1 114.71 173C114.073 170.561 108 170.056 108 172.441C108 173.897 106.214 175.547 105.457 174.791C105.232 174.565 105.955 171.933 107.064 168.94C108.173 165.948 109.273 162.938 109.509 162.25C109.906 161.092 113 160.407 113 161.477ZM128.8 162.2C131.919 165.319 129.077 170 124.066 170C122.529 170 122 170.64 122 172.5C122 173.875 121.55 175 121 175C120.429 175 120 172 120 168V161H123.8C125.89 161 128.14 161.54 128.8 162.2ZM141.8 162.2C144.647 165.047 141.872 170 137.429 170C135.505 170 135 170.52 135 172.5C135 173.875 134.55 175 134 175C133.429 175 133 172 133 168V161H136.8C138.89 161 141.14 161.54 141.8 162.2ZM79 167.5C79 172.572 79.179 173 81.3 173C84.486 173 86 171.175 86 167.335C86 164.028 83.934 162 80.566 162C79.335 162 79 163.175 79 167.5ZM122 165.066C122 167.82 122.28 168.101 124.741 167.816C129.578 167.258 128.689 162.059 123.75 162.015C122.46 162.004 122 162.807 122 165.066ZM135 165C135 167.543 135.385 168 137.531 168C138.924 168 140.324 167.319 140.643 166.487C141.396 164.525 139.277 162 136.878 162C135.458 162 135 162.732 135 165ZM110.219 165.801C109.213 168.686 109.295 169 111.052 169C113.092 169 113.372 167.81 112.097 164.551C111.425 162.834 111.202 162.982 110.219 165.801Z" fill="#A58D29"/>
<path fill-rule="evenodd" clip-rule="evenodd" d="M34.798 1.93099C19.149 6.93399 6.763 19.315 2.009 34.705C0.0940001 40.905 0 43.946 0 99.5C0 154.82 0.101 158.117 1.985 164.217C6.779 179.736 19.286 192.224 34.855 197.036C40.899 198.904 44.435 199 107 199C169.801 199 173.081 198.91 179.217 197.015C194.736 192.221 207.224 179.714 212.036 164.145C213.893 158.136 214 154.611 214 99.5C214 44.18 213.899 40.883 212.015 34.783C207.221 19.264 194.714 6.77599 179.145 1.96399C173.091 0.0929929 169.647 0.00299302 106.645 0.053993C45.478 0.103993 40.071 0.244993 34.798 1.93099ZM138.717 46.1C141.382 47.092 141.741 47.793 164.875 97.235C174.844 118.539 183 136.851 183 137.928C183 140.611 179.315 143.052 176.716 142.091C175.271 141.556 171.762 135.137 164.867 120.416L155.071 99.5L138.536 99.226C129.441 99.075 122 99.112 122 99.308C122 99.504 119.521 107.928 116.492 118.026C112.992 129.696 110.195 137.228 108.818 138.694L106.651 141H69.654C36.632 141 32.461 140.822 30.829 139.345C28.504 137.241 28.499 134.764 30.814 132.668C32.411 131.223 36.809 130.995 67.536 130.763L102.444 130.5L107.096 115L111.748 99.5L77.688 99.237C47.749 99.005 43.409 98.775 41.814 97.332C39.559 95.291 39.508 93.201 41.655 90.829C43.2 89.122 45.698 89 79.113 89H114.915L116.929 82.25C118.036 78.537 120.288 71.021 121.933 65.546C123.579 60.071 124.792 55.458 124.629 55.296C124.467 55.133 110.646 54.746 93.917 54.436C77.188 54.126 62.494 53.669 61.265 53.421C58.147 52.791 57.207 48.534 59.601 45.888C61.409 43.89 62.059 43.868 98.97 44.566C119.611 44.956 137.498 45.647 138.717 46.1ZM129.908 73.25L125.394 88.5L131.738 88.797C135.228 88.96 140.755 88.96 144.021 88.797L149.958 88.5L142.795 73.25C138.856 64.862 135.36 58 135.028 58C134.695 58 132.391 64.862 129.908 73.25ZM70.75 161.728C67.549 162.063 67 162.478 67 164.56C67 166.604 67.486 167 70 167C71.65 167 73 167.45 73 168C73 168.55 71.65 169 70 169C67.667 169 67 169.444 67 171C67 172.619 67.667 173 70.5 173C72.425 173 74 173.45 74 174C74 174.55 71.975 175 69.5 175H65V168V161L69.75 161.168C74.102 161.322 74.186 161.369 70.75 161.728ZM86.429 162.571C87.316 163.459 88 165.828 88 168.015C88 172.602 85.349 175 80.277 175H77V168V161H80.929C83.167 161 85.533 161.676 86.429 162.571ZM93.198 166.147C93.517 171.579 95.317 173.86 98.364 172.691C99.606 172.214 100 170.73 100 166.531C100 162.281 100.347 161 101.5 161C102.624 161 103 162.197 103 165.777C103 171.585 100.879 175 97.272 175C92.892 175 91 172.389 91 166.345C91 159.505 92.798 159.343 93.198 166.147ZM113 161.477C113 161.74 114.105 164.89 115.455 168.477C117.297 173.369 117.576 175 116.572 175C115.836 175 114.998 174.1 114.71 173C114.073 170.561 108 170.056 108 172.441C108 173.93 106.207 175.54 105.423 174.756C105.013 174.347 106.177 170.636 108.874 163.75C109.466 162.238 110.637 161 111.475 161C112.314 161 113 161.215 113 161.477ZM129.393 162.582C131.071 166.955 128.884 170 124.066 170C122.529 170 122 170.64 122 172.5C122 173.875 121.55 175 121 175C120.429 175 120 172 120 168V161H124.393C127.476 161 128.967 161.472 129.393 162.582ZM141.8 162.2C144.919 165.319 142.077 170 137.066 170C135.529 170 135 170.64 135 172.5C135 173.875 134.55 175 134 175C133.429 175 133 172 133 168V161H136.8C138.89 161 141.14 161.54 141.8 162.2ZM79 167.5C79 172.572 79.179 173 81.3 173C84.486 173 86 171.175 86 167.335C86 164.028 83.934 162 80.566 162C79.335 162 79 163.175 79 167.5ZM122 165.066C122 167.82 122.28 168.101 124.741 167.816C129.578 167.258 128.689 162.059 123.75 162.015C122.46 162.004 122 162.807 122 165.066ZM135 165C135 167.498 135.401 168 137.393 168C140.151 168 141.565 165.386 139.895 163.373C139.268 162.618 137.91 162 136.878 162C135.458 162 135 162.732 135 165ZM110.227 166C109.465 167.942 109.571 168.576 110.701 168.838C112.891 169.348 113.434 168.276 112.26 165.76L111.207 163.5L110.227 166Z" fill="#867121"/>
<path fill-rule="evenodd" clip-rule="evenodd" d="M34.798 1.93099C19.149 6.93399 6.763 19.315 2.009 34.705C0.0940001 40.905 0 43.946 0 99.5C0 154.82 0.101 158.117 1.985 164.217C6.779 179.736 19.286 192.224 34.855 197.036C40.899 198.904 44.435 199 107 199C169.801 199 173.081 198.91 179.217 197.015C194.736 192.221 207.224 179.714 212.036 164.145C213.893 158.136 214 154.611 214 99.5C214 44.18 213.899 40.883 212.015 34.783C207.221 19.264 194.714 6.77599 179.145 1.96399C173.091 0.0929929 169.647 0.00299302 106.645 0.053993C45.478 0.103993 40.071 0.244993 34.798 1.93099ZM139.027 45.814C140.987 46.539 145.328 55.023 162.608 91.902C176.191 120.892 183.6 137.812 183.268 139.083C182.983 140.172 181.849 141.545 180.749 142.135C176.524 144.396 174.82 142.083 164.532 120.118L154.64 99H138.53H122.421L116.96 117.598C113.427 129.632 110.723 137.044 109.298 138.598L107.095 141H69.619C36.883 141 31.944 140.801 30.571 139.429C28.799 137.656 28.574 135.222 29.978 133C30.781 131.728 36.358 131.424 66.651 131L102.377 130.5L107.001 115L111.626 99.5L76.776 99C47.261 98.577 41.78 98.27 40.978 97C39.574 94.778 39.799 92.344 41.571 90.571C42.942 89.201 47.736 89 79.004 89C112.295 89 114.902 88.875 115.379 87.25C117.909 78.624 124.35 57.263 124.689 56.374C124.998 55.564 116.205 55.043 93.309 54.513C75.814 54.109 60.712 53.362 59.75 52.854C57.508 51.67 57.497 47.646 59.729 45.414C61.329 43.814 64.263 43.731 99.041 44.305C119.712 44.646 137.706 45.325 139.027 45.814ZM134.628 59C133.649 61.391 126 87.252 126 88.169C126 88.626 131.378 89 137.952 89H149.903L144.853 78.25C142.075 72.338 138.776 65.25 137.522 62.5C135.98 59.117 135.043 57.985 134.628 59ZM74 161.5C74 162.548 72.944 163 70.5 163C67.667 163 67 163.381 67 165C67 166.556 67.667 167 70 167C71.65 167 73 167.45 73 168C73 168.55 71.65 169 70 169C67.667 169 67 169.444 67 171C67 172.619 67.667 173 70.5 173C72.425 173 74 173.45 74 174C74 174.55 71.75 175 69 175H64V168.167C64 164.408 64.3 161.033 64.667 160.667C65.033 160.3 67.283 160 69.667 160C72.852 160 74 160.397 74 161.5ZM86.838 162.409C88.981 164.552 88.817 170.44 86.545 172.95C85.288 174.34 83.451 175 80.845 175H77V167.368V159.737L81.138 160.292C83.413 160.597 85.978 161.55 86.838 162.409ZM94 166.578C94.466 172.095 94.671 172.5 97 172.5C99.329 172.5 99.534 172.095 100 166.578C100.696 158.332 103 157.77 103 165.845C103 172.702 101.494 175 97 175C92.506 175 91 172.702 91 165.845C91 157.77 93.304 158.332 94 166.578ZM114.8 165.75C115.891 168.912 117.106 172.287 117.499 173.25C117.997 174.468 117.746 175 116.674 175C115.828 175 114.849 174.1 114.5 173C114.086 171.695 112.987 171 111.339 171C109.654 171 108.639 171.666 108.29 173C108.002 174.1 107.114 175 106.316 175C104.724 175 104.873 174.232 108.199 165.25C109.269 162.363 110.745 160 111.48 160C112.215 160 113.709 162.588 114.8 165.75ZM128.066 161.035C130.258 162.208 130.701 166.899 128.8 168.8C128.14 169.46 126.34 170 124.8 170C122.48 170 122 170.429 122 172.5C122 173.875 121.55 175 121 175C120.422 175 120 171.833 120 167.5V160H123.066C124.752 160 127.002 160.466 128.066 161.035ZM141.066 161.035C143.258 162.208 143.701 166.899 141.8 168.8C141.14 169.46 139.34 170 137.8 170C135.48 170 135 170.429 135 172.5C135 173.875 134.55 175 134 175C133.422 175 133 171.833 133 167.5V160H136.066C137.752 160 140.002 160.466 141.066 161.035ZM122.667 162.667C122.3 163.033 122 164.383 122 165.667C122 167.497 122.546 168 124.531 168C127.783 168 128.962 165.177 126.471 163.355C124.392 161.835 123.635 161.698 122.667 162.667ZM135.667 162.667C135.3 163.033 135 164.383 135 165.667C135 168.444 138.029 168.875 140.09 166.392C141.224 165.025 141.138 164.574 139.521 163.392C137.393 161.835 136.64 161.694 135.667 162.667ZM79 168C79 171.871 79.354 173 80.566 173C83.703 173 86 170.956 86 168.165C86 164.797 84.364 163 81.3 163C79.207 163 79 163.449 79 168ZM110.675 165.405C109.646 168.087 109.855 169 111.5 169C113.143 169 113.238 168.465 112.105 165.573C111.404 163.785 111.301 163.773 110.675 165.405Z" fill="#4A3811"/>
<path fill-rule="evenodd" clip-rule="evenodd" d="M34.798 1.93099C19.149 6.93399 6.763 19.315 2.009 34.705C0.0940001 40.905 0 43.946 0 99.5C0 154.82 0.101 158.117 1.985 164.217C6.779 179.736 19.286 192.224 34.855 197.036C40.899 198.904 44.435 199 107 199C169.801 199 173.081 198.91 179.217 197.015C194.736 192.221 207.224 179.714 212.036 164.145C213.893 158.136 214 154.611 214 99.5C214 44.18 213.899 40.883 212.015 34.783C207.221 19.264 194.714 6.77599 179.145 1.96399C173.091 0.0929929 169.647 0.00299302 106.645 0.053993C45.478 0.103993 40.071 0.244993 34.798 1.93099ZM139.595 45.762C141.008 46.532 148.377 61.176 162.211 90.702C173.497 114.791 183.04 135.489 183.417 136.699C184.218 139.269 181.102 143 178.155 143C175.221 143 173.835 140.693 163.891 119.256L154.5 99.013L138.5 99.012H122.5L117.114 117.256C114.152 127.29 110.858 136.738 109.796 138.25L107.864 141H69.632C41.229 141 31.091 140.691 30.2 139.8C28.653 138.253 28.653 133.747 30.2 132.2C31.088 131.312 40.564 131 66.639 131H101.879L104.512 122.25C105.961 117.438 108.013 110.64 109.073 107.145C110.133 103.649 111 100.387 111 99.895C111 99.386 96.208 99 76.7 99C51.356 99 42.087 98.687 41.2 97.8C39.653 96.253 39.653 91.747 41.2 90.2C42.089 89.311 51.749 89 78.471 89H114.542L119.586 72.131L124.629 55.261L92.878 54.806C58.709 54.315 58 54.199 58 49.078C58 43.7 57.399 43.771 99 44.212C125.252 44.49 138.167 44.983 139.595 45.762ZM130.597 72.253C128.451 79.539 126.486 86.287 126.23 87.25C125.808 88.843 126.81 89 137.383 89C143.773 89 149.007 88.662 149.016 88.25C149.042 86.996 135.702 59 135.08 59.003C134.761 59.005 132.744 64.968 130.597 72.253ZM74 161.5C74 162.548 72.944 163 70.5 163C65.913 163 65.632 165.738 70.173 166.187C74.757 166.639 75.102 169 70.583 169C67.667 169 67 169.372 67 171C67 172.619 67.667 173 70.5 173C72.425 173 74 173.45 74 174C74 174.55 71.75 175 69 175H64V167.5V160H69C72.778 160 74 160.367 74 161.5ZM85.886 161.75C89.102 164.42 89.588 168.983 87.006 172.266C85.241 174.509 84.06 175 80.427 175H76V168.167C76 164.408 76.3 161.033 76.667 160.667C77.984 159.349 83.821 160.035 85.886 161.75ZM94 165.941C94 172.232 94.787 173.52 98.009 172.497C99.702 171.96 100 170.978 100 165.933C100 161.326 100.335 160 101.5 160C103.435 160 103.612 170.781 101.719 173.37C100.197 175.451 94.721 175.844 92.535 174.029C90.361 172.225 90.331 160 92.5 160C93.665 160 94 161.327 94 165.941ZM114.801 165.25C118.131 174.244 118.277 175 116.674 175C115.871 175 114.955 174.325 114.638 173.5C114.302 172.623 112.803 172 111.031 172C109.003 172 108 172.497 108 173.5C108 174.325 107.325 175 106.5 175C104.353 175 104.624 173.601 108.874 162.75C110.531 158.517 112.636 159.405 114.801 165.25ZM128.169 161.25C131.938 164.287 130.159 170 125.443 170C123.504 170 123 170.515 123 172.5C123 174.056 122.433 175 121.5 175C120.3 175 120 173.5 120 167.5V160H123.309C125.129 160 127.316 160.563 128.169 161.25ZM141.066 161.035C143.258 162.208 143.701 166.899 141.8 168.8C141.14 169.46 139.34 170 137.8 170C135.48 170 135 170.429 135 172.5C135 174.056 134.433 175 133.5 175C132.313 175 132 173.574 132 168.167C132 164.408 132.3 161.033 132.667 160.667C133.688 159.646 138.896 159.874 141.066 161.035ZM79 168C79 172.272 79.281 173 80.929 173C85.041 173 87.656 167.056 84.8 164.2C84.14 163.54 82.565 163 81.3 163C79.207 163 79 163.449 79 168ZM123 165.5C123 168.287 125.065 168.831 126.964 166.544C128.476 164.721 127.494 163 124.941 163C123.537 163 123 163.692 123 165.5ZM135 165.57C135 167.662 135.418 168.08 137.25 167.82C138.696 167.614 139.614 166.696 139.82 165.25C140.08 163.418 139.662 163 137.57 163C135.477 163 135 163.477 135 165.57ZM110.675 165.405C109.646 168.087 109.855 169 111.5 169C113.143 169 113.238 168.465 112.105 165.573C111.404 163.785 111.301 163.773 110.675 165.405Z" fill="#2C1C08"/>
<path fill-rule="evenodd" clip-rule="evenodd" d="M34.798 1.93099C19.149 6.93399 6.763 19.315 2.009 34.705C0.0940001 40.905 0 43.946 0 99.5C0 154.82 0.101 158.117 1.985 164.217C6.779 179.736 19.286 192.224 34.855 197.036C40.899 198.904 44.435 199 107 199C169.801 199 173.081 198.91 179.217 197.015C194.736 192.221 207.224 179.714 212.036 164.145C213.893 158.136 214 154.611 214 99.5C214 44.18 213.899 40.883 212.015 34.783C207.221 19.264 194.714 6.77599 179.145 1.96399C173.091 0.0929929 169.647 0.00299302 106.645 0.053993C45.478 0.103993 40.071 0.244993 34.798 1.93099ZM140.046 46.138C141.808 47.314 148.384 60.373 163.375 92.467C181.779 131.87 184.12 137.441 183.159 139.551C181.75 142.642 177.507 143.774 175.21 141.673C174.269 140.812 169.225 130.857 164 119.55L154.5 98.991L138.588 99.246L122.676 99.5L116.998 118.244C113.876 128.553 110.504 137.89 109.506 138.994C107.749 140.935 106.46 141 69.545 141C41.21 141 31.091 140.691 30.2 139.8C28.653 138.253 28.653 133.747 30.2 132.2C31.088 131.312 40.578 131 66.7 131C86.115 131 102 130.849 102 130.664C102 130.479 104.02 123.617 106.488 115.414C108.957 107.211 110.982 100.162 110.988 99.75C110.995 99.338 95.565 99 76.7 99C51.356 99 42.087 98.687 41.2 97.8C39.653 96.253 39.653 91.747 41.2 90.2C42.089 89.311 51.753 88.998 78.45 88.993L114.5 88.986L119.282 72.743C121.913 63.809 124.05 56.163 124.032 55.75C124.015 55.337 110.388 54.993 93.75 54.985C60.705 54.969 58.757 54.678 58.178 49.666C57.497 43.776 56.679 43.885 98.954 44.207C132.76 44.463 137.899 44.705 140.046 46.138ZM134.62 60C133.97 61.609 126 88.118 126 88.669C126 88.851 131.205 89 137.567 89C151.197 89 150.739 90.994 141.533 71.711C137.608 63.49 134.997 59.067 134.62 60ZM74 161.5C74 162.548 72.944 163 70.5 163C68.056 163 67 163.452 67 164.5C67 165.548 68.056 166 70.5 166C72.944 166 74 166.452 74 167.5C74 168.548 72.944 169 70.5 169C67.667 169 67 169.381 67 171C67 172.619 67.667 173 70.5 173C72.425 173 74 173.45 74 174C74 174.55 71.75 175 69 175H64V167.5V160H69C72.778 160 74 160.367 74 161.5ZM86.927 162.635C91.61 168.588 88.277 175 80.5 175H76V167.5V160H80.427C84.019 160 85.246 160.497 86.927 162.635ZM94 165.893C94 170.413 94.379 171.931 95.627 172.41C98.491 173.509 100 171.082 100 165.378C100 161.194 100.343 160 101.546 160C102.816 160 103.039 161.2 102.796 166.741C102.522 172.979 102.295 173.579 99.75 174.795C97.478 175.88 96.522 175.88 94.25 174.795C91.705 173.579 91.478 172.979 91.204 166.741C90.961 161.2 91.184 160 92.454 160C93.674 160 94 161.244 94 165.893ZM115.611 166.872C116.925 170.376 118 173.639 118 174.122C118 175.603 115.25 175.095 114.638 173.5C114.322 172.675 112.91 172 111.5 172C110.09 172 108.678 172.675 108.362 173.5C108.045 174.325 107.008 175 106.057 175C104.494 175 104.576 174.276 106.914 167.468C110.235 157.795 112.158 157.663 115.611 166.872ZM129.171 161.655C132.672 164.823 130.35 170 125.429 170C123.505 170 123 170.52 123 172.5C123 174.056 122.433 175 121.5 175C120.3 175 120 173.5 120 167.5V160H123.671C125.69 160 128.165 160.745 129.171 161.655ZM142.5 162.359C144.958 166.111 142.816 169.954 138.25 169.985C136.521 169.996 136 170.579 136 172.5C136 174.333 135.467 175 134 175C132.178 175 132 174.333 132 167.5V160H136.477C140.078 160 141.256 160.462 142.5 162.359ZM79 167.934C79 173.589 80.162 174.309 84.119 171.105C86.131 169.475 86.32 168.809 85.461 166.355C84.744 164.304 83.694 163.411 81.732 163.184C79.074 162.876 79 163.004 79 167.934ZM123 165.5C123 168.222 123.085 168.288 125.418 167.393C127.765 166.493 127.432 163 125 163C123.533 163 123 163.667 123 165.5ZM136 165.5C136 168.222 136.085 168.288 138.418 167.393C140.765 166.493 140.432 163 138 163C136.533 163 136 163.667 136 165.5ZM110.651 166.466C109.889 168.453 110.35 169.409 111.803 168.854C112.314 168.659 112.421 167.633 112.041 166.573C111.384 164.742 111.315 164.737 110.651 166.466Z" fill="#0E0000"/>
</svg>
